<svg xmlns="http://www.w3.org/2000/svg" width="24" height="24"><symbol id="target" viewBox="0 0 100 100"><g fill="currentColor"><path d="M23.602 50.975c0 14.093 11.463 25.557 25.555 25.557 14.095 0 25.562-11.464 25.562-25.557 0-3.991-.946-7.756-2.584-11.124l-5.491 5.49c.574 1.777.892 3.668.892 5.634 0 10.132-8.244 18.374-18.378 18.374-10.13 0-18.372-8.242-18.372-18.374 0-10.133 8.242-18.377 18.372-18.377 1.967 0 3.857.318 5.635.893L60.284 28a25.347 25.347 0 00-11.126-2.584c-14.094-.001-25.556 11.465-25.556 25.559z"/><path d="M80.703 39.839a33.284 33.284 0 011.913 11.137c0 18.449-15.011 33.457-33.462 33.457-18.448 0-33.456-15.008-33.456-33.457 0-18.45 15.008-33.461 33.456-33.461 3.766 0 7.385.635 10.765 1.787l.18-.181 5.357-5.366a40.413 40.413 0 00-16.302-3.423c-22.409 0-40.64 18.232-40.64 40.644 0 22.41 18.23 40.641 40.64 40.641 22.411 0 40.646-18.23 40.646-40.641 0-5.935-1.29-11.569-3.585-16.657l-5.438 5.447z"/><path d="M81.233 18.63L77.584 8.384 63.488 22.505l2.379 6.682L53.31 41.743a10.107 10.107 0 00-4.153-.896c-.652 0-1.289.067-1.908.186-4.68.894-8.218 5.002-8.218 9.941 0 5.593 4.533 10.128 10.126 10.128 4.941 0 9.049-3.539 9.942-8.217.118-.619.187-1.257.187-1.911 0-1.48-.325-2.883-.896-4.15l12.68-12.68 6.318 2.238 14.099-14.121z"/></g></symbol></svg>