<svg
   xmlns="http://www.w3.org/2000/svg"
   viewBox="0 0 100 100" width="24" height="24"><g fill="currentColor"><path
       d="m 23.602,50.975 c 0,14.093 11.463,25.557 25.555,25.557 14.095,0 25.562,-11.464 25.562,-25.557 0,-3.991 -0.946,-7.756 -2.584,-11.124 l -5.491,5.49 c 0.574,1.777 0.892,3.668 0.892,5.634 0,10.132 -8.244,18.374 -18.378,18.374 -10.13,0 -18.372,-8.242 -18.372,-18.374 0,-10.133 8.242,-18.377 18.372,-18.377 1.967,0 3.857,0.318 5.635,0.893 L 60.284,28 C 56.916,26.361 53.15,25.416 49.158,25.416 35.064,25.415 23.602,36.881 23.602,50.975 Z"
       /><path
       d="m 80.703,39.839 c 1.235,3.486 1.913,7.233 1.913,11.137 0,18.449 -15.011,33.457 -33.462,33.457 -18.448,0 -33.456,-15.008 -33.456,-33.457 0,-18.45 15.008,-33.461 33.456,-33.461 3.766,0 7.385,0.635 10.765,1.787 l 0.18,-0.181 5.357,-5.366 C 60.462,11.56 54.95,10.332 49.154,10.332 c -22.409,0 -40.64,18.232 -40.64,40.644 0,22.41 18.23,40.641 40.64,40.641 22.411,0 40.646,-18.23 40.646,-40.641 0,-5.935 -1.29,-11.569 -3.585,-16.657 l -5.438,5.447 z"
       /><path
       d="M 81.233,18.63 77.584,8.384 63.488,22.505 65.867,29.187 53.31,41.743 c -1.269,-0.57 -2.672,-0.896 -4.153,-0.896 -0.652,0 -1.289,0.067 -1.908,0.186 -4.68,0.894 -8.218,5.002 -8.218,9.941 0,5.593 4.533,10.128 10.126,10.128 4.941,0 9.049,-3.539 9.942,-8.217 0.118,-0.619 0.187,-1.257 0.187,-1.911 0,-1.48 -0.325,-2.883 -0.896,-4.15 l 12.68,-12.68 6.318,2.238 14.099,-14.121 z"
       /></g>
</svg>